<?xml version="1.0" encoding="UTF-8"?>
<svg xmlns="http://www.w3.org/2000/svg" viewBox="0 0 1400 740" font-family="Calibri, Inter, sans-serif">
  <defs>
    <linearGradient id="hdrK" x1="0" y1="0" x2="1" y2="0">
      <stop offset="0" stop-color="#1E3AA0"/>
      <stop offset="1" stop-color="#F59E0B"/>
    </linearGradient>
  </defs>
  <rect width="1400" height="740" fill="#F8FAFC"/>
  <rect x="0" y="0" width="1400" height="56" fill="url(#hdrK)"/>
  <text x="700" y="36" fill="white" font-size="22" font-weight="700" text-anchor="middle">SIARM — Kanban Board (Snapshot · end of Sprint 4)</text>

  <!-- Column headers -->
  <g>
    <rect x="20"  y="90" width="270" height="46" fill="#94A3B8"/>
    <text x="155" y="115" fill="white" font-size="14" font-weight="700" text-anchor="middle">Backlog (8)</text>
    <text x="155" y="128" fill="white" font-size="10" text-anchor="middle">Not yet started</text>
  </g>
  <g>
    <rect x="305" y="90" width="270" height="46" fill="#1E3AA0"/>
    <text x="440" y="115" fill="white" font-size="14" font-weight="700" text-anchor="middle">To Do (4)</text>
    <text x="440" y="128" fill="white" font-size="10" text-anchor="middle">Sprint backlog</text>
  </g>
  <g>
    <rect x="590" y="90" width="270" height="46" fill="#F59E0B"/>
    <text x="725" y="115" fill="white" font-size="14" font-weight="700" text-anchor="middle">In Progress (3) · WIP-3</text>
    <text x="725" y="128" fill="white" font-size="10" text-anchor="middle">Active work</text>
  </g>
  <g>
    <rect x="875" y="90" width="270" height="46" fill="#3B6DF5"/>
    <text x="1010" y="115" fill="white" font-size="14" font-weight="700" text-anchor="middle">Review (2)</text>
    <text x="1010" y="128" fill="white" font-size="10" text-anchor="middle">Self-review + classmate</text>
  </g>
  <g>
    <rect x="1160" y="90" width="220" height="46" fill="#10B981"/>
    <text x="1270" y="115" fill="white" font-size="14" font-weight="700" text-anchor="middle">Done (17)</text>
    <text x="1270" y="128" fill="white" font-size="10" text-anchor="middle">DoD met</text>
  </g>

  <!-- Backlog cards -->
  <g font-size="11">
    <g><rect x="20"  y="150" width="270" height="50" fill="white" stroke="#94A3B8"/><text x="30" y="170" fill="#1E293B" font-weight="700">Multi-tenant SaaS</text><text x="30" y="186" fill="#475569">3 SP · future · #US-101</text></g>
    <g><rect x="20"  y="210" width="270" height="50" fill="white" stroke="#94A3B8"/><text x="30" y="230" fill="#1E293B" font-weight="700">Biometric attendance</text><text x="30" y="246" fill="#475569">8 SP · future · #US-102</text></g>
    <g><rect x="20"  y="270" width="270" height="50" fill="white" stroke="#94A3B8"/><text x="30" y="290" fill="#1E293B" font-weight="700">Native mobile apps</text><text x="30" y="306" fill="#475569">13 SP · future · #US-103</text></g>
    <g><rect x="20"  y="330" width="270" height="50" fill="white" stroke="#94A3B8"/><text x="30" y="350" fill="#1E293B" font-weight="700">Live MoMo / OM API</text><text x="30" y="366" fill="#475569">5 SP · #US-104</text></g>
    <g><rect x="20"  y="390" width="270" height="50" fill="white" stroke="#94A3B8"/><text x="30" y="410" fill="#1E293B" font-weight="700">Exam scheduler</text><text x="30" y="426" fill="#475569">8 SP · #US-105</text></g>
    <g><rect x="20"  y="450" width="270" height="50" fill="white" stroke="#94A3B8"/><text x="30" y="470" fill="#1E293B" font-weight="700">Library management</text><text x="30" y="486" fill="#475569">5 SP · #US-106</text></g>
    <g><rect x="20"  y="510" width="270" height="50" fill="white" stroke="#94A3B8"/><text x="30" y="530" fill="#1E293B" font-weight="700">Audit log (full)</text><text x="30" y="546" fill="#475569">3 SP · #US-107</text></g>
    <g><rect x="20"  y="570" width="270" height="50" fill="white" stroke="#94A3B8"/><text x="30" y="590" fill="#1E293B" font-weight="700">CSV bulk grade entry</text><text x="30" y="606" fill="#475569">2 SP · #US-108</text></g>
  </g>

  <!-- To Do cards -->
  <g font-size="11">
    <g><rect x="305" y="150" width="270" height="60" fill="white" stroke="#1E3AA0" stroke-width="1.5"/><text x="315" y="170" fill="#1E3AA0" font-weight="700">Bilingual EN/FR</text><text x="315" y="187" fill="#475569">As a parent, I want EN/FR…</text><text x="315" y="201" fill="#94A3B8">5 SP · #US-S5-01 · priority: must</text></g>
    <g><rect x="305" y="220" width="270" height="60" fill="white" stroke="#1E3AA0" stroke-width="1.5"/><text x="315" y="240" fill="#1E3AA0" font-weight="700">Profile page</text><text x="315" y="257" fill="#475569">Change password + theme</text><text x="315" y="271" fill="#94A3B8">3 SP · #US-S5-02 · priority: should</text></g>
    <g><rect x="305" y="290" width="270" height="60" fill="white" stroke="#1E3AA0" stroke-width="1.5"/><text x="315" y="310" fill="#1E3AA0" font-weight="700">Help / FAQ page</text><text x="315" y="327" fill="#475569">Searchable bilingual FAQ</text><text x="315" y="341" fill="#94A3B8">2 SP · #US-S5-03 · priority: should</text></g>
    <g><rect x="305" y="360" width="270" height="60" fill="white" stroke="#1E3AA0" stroke-width="1.5"/><text x="315" y="380" fill="#1E3AA0" font-weight="700">ICS calendar export</text><text x="315" y="397" fill="#475569">Add timetable to Google Cal</text><text x="315" y="411" fill="#94A3B8">2 SP · #US-S5-04 · priority: could</text></g>
  </g>

  <!-- In Progress cards -->
  <g font-size="11">
    <g><rect x="590" y="150" width="270" height="60" fill="#FEF3C7" stroke="#F59E0B" stroke-width="1.5"/><text x="600" y="170" fill="#92400E" font-weight="700">Payment success screen</text><text x="600" y="187" fill="#92400E">Animated banner + receipt PDF</text><text x="600" y="201" fill="#92400E">3 SP · #US-S4-05 · 60%</text></g>
    <g><rect x="590" y="220" width="270" height="60" fill="#FEF3C7" stroke="#F59E0B" stroke-width="1.5"/><text x="600" y="240" fill="#92400E" font-weight="700">QR on receipt</text><text x="600" y="257" fill="#92400E">verify.iuget.cm/{matricule}/{ref}</text><text x="600" y="271" fill="#92400E">2 SP · #US-S4-06 · 80%</text></g>
    <g><rect x="590" y="290" width="270" height="60" fill="#FEF3C7" stroke="#F59E0B" stroke-width="1.5"/><text x="600" y="310" fill="#92400E" font-weight="700">Bank transfer pane</text><text x="600" y="327" fill="#92400E">Afriland · IBAN copy</text><text x="600" y="341" fill="#92400E">2 SP · #US-S4-07 · 40%</text></g>
  </g>

  <!-- Review -->
  <g font-size="11">
    <g><rect x="875" y="150" width="270" height="60" fill="#EFF6FF" stroke="#3B6DF5" stroke-width="1.5"/><text x="885" y="170" fill="#1E3AA0" font-weight="700">Visa 3-D Secure pane</text><text x="885" y="187" fill="#475569">Card form + OTP</text><text x="885" y="201" fill="#94A3B8">3 SP · #US-S4-04 · review</text></g>
    <g><rect x="875" y="220" width="270" height="60" fill="#EFF6FF" stroke="#3B6DF5" stroke-width="1.5"/><text x="885" y="240" fill="#1E3AA0" font-weight="700">PayPal pane</text><text x="885" y="257" fill="#475569">USD conversion · email-pw</text><text x="885" y="271" fill="#94A3B8">2 SP · #US-S4-03 · review</text></g>
  </g>

  <!-- Done (sample) -->
  <g font-size="11">
    <g><rect x="1160" y="150" width="220" height="46" fill="#ECFDF5" stroke="#10B981" stroke-width="1.5"/><text x="1168" y="170" fill="#065F46" font-weight="700">5-step wizard</text><text x="1168" y="186" fill="#065F46">5 SP · #US-S4-01 ✓</text></g>
    <g><rect x="1160" y="206" width="220" height="46" fill="#ECFDF5" stroke="#10B981" stroke-width="1.5"/><text x="1168" y="226" fill="#065F46" font-weight="700">MoMo USSD pane</text><text x="1168" y="242" fill="#065F46">3 SP · #US-S4-02 ✓</text></g>
    <g><rect x="1160" y="262" width="220" height="46" fill="#ECFDF5" stroke="#10B981" stroke-width="1.5"/><text x="1168" y="282" fill="#065F46" font-weight="700">OM USSD pane</text><text x="1168" y="298" fill="#065F46">3 SP · #US-S4-02b ✓</text></g>
    <g><rect x="1160" y="318" width="220" height="46" fill="#ECFDF5" stroke="#10B981" stroke-width="1.5"/><text x="1168" y="338" fill="#065F46" font-weight="700">Privacy invariant</text><text x="1168" y="354" fill="#065F46">2 SP · #US-S4-08 ✓</text></g>
    <g><rect x="1160" y="374" width="220" height="46" fill="#ECFDF5" stroke="#10B981" stroke-width="1.5"/><text x="1168" y="394" fill="#065F46" font-weight="700">Parent details step</text><text x="1168" y="410" fill="#065F46">2 SP · #US-S4-09 ✓</text></g>
    <g><rect x="1160" y="430" width="220" height="46" fill="#ECFDF5" stroke="#10B981" stroke-width="1.5"/><text x="1168" y="450" fill="#065F46" font-weight="700">Child details step</text><text x="1168" y="466" fill="#065F46">2 SP · #US-S4-10 ✓</text></g>
    <g><rect x="1160" y="486" width="220" height="46" fill="#ECFDF5" stroke="#10B981" stroke-width="1.5"/><text x="1168" y="506" fill="#065F46" font-weight="700">+ 11 more cards…</text><text x="1168" y="522" fill="#065F46">total 17 done in S4</text></g>
  </g>

  <!-- Footer notes -->
  <g font-size="11">
    <rect x="20" y="650" width="1360" height="60" fill="white" stroke="#E2E8F0"/>
    <text x="36" y="673" fill="#1E293B" font-weight="700">Definition of Done (DoD)</text>
    <text x="36" y="690" fill="#475569">✓ Implemented · ✓ Visible in DEMO_MODE · ✓ Smoke-tested on 4 browsers · ✓ Bilingual where user-facing · ✓ No console errors · ✓ Pull-request style self-review</text>
    <text x="36" y="703" fill="#475569">WIP limits: In Progress ≤ 3 · Review ≤ 4 · daily refresh · weekly retrospective</text>
  </g>
</svg>
